<?xml version="1.0" standalone="no"?>
<!DOCTYPE svg PUBLIC "-//W3C//DTD SVG 20010904//EN"
 "http://www.w3.org/TR/2001/REC-SVG-20010904/DTD/svg10.dtd">
<svg version="1.0" xmlns="http://www.w3.org/2000/svg"
 width="1254.000000pt" height="1254.000000pt" viewBox="0 0 1254.000000 1254.000000"
 preserveAspectRatio="xMidYMid meet">

<g transform="translate(0.000000,1254.000000) scale(0.100000,-0.100000)"
fill="#000000" stroke="none">
<path d="M6430 8759 c-57 -23 -98 -61 -208 -199 -181 -226 -217 -258 -366
-330 -156 -75 -194 -111 -331 -316 -107 -160 -240 -306 -329 -363 -54 -34
-121 -41 -163 -18 -12 7 -76 64 -144 127 -180 169 -212 188 -293 176 -66 -11
-134 -66 -298 -244 -237 -257 -263 -277 -412 -324 -56 -17 -119 -40 -140 -50
-66 -33 -144 -117 -228 -241 -110 -164 -186 -238 -333 -324 -139 -83 -162 -99
-392 -291 -199 -165 -448 -354 -504 -383 -22 -11 -39 -26 -39 -35 0 -14 33
-15 318 -12 432 6 436 8 747 213 94 62 202 132 240 155 98 60 196 142 242 203
45 59 72 108 142 258 83 177 119 208 381 327 136 61 220 178 240 332 5 41 14
108 19 148 16 124 56 152 126 91 20 -18 94 -98 164 -178 126 -143 267 -280
486 -471 61 -52 132 -116 160 -141 27 -25 91 -79 140 -119 50 -41 126 -106
170 -145 219 -196 299 -234 530 -255 160 -14 247 -45 402 -143 226 -142 333
-183 499 -194 102 -6 139 -1 148 23 17 43 -51 105 -294 269 -257 174 -340 250
-387 351 -41 89 -40 124 2 291 36 139 38 152 28 218 -15 104 -54 178 -140 262
-101 100 -194 154 -276 160 -50 3 -68 0 -93 -16 -46 -28 -78 -76 -114 -166
-44 -110 -83 -181 -132 -238 -81 -96 -253 -206 -298 -192 -67 21 -38 105 97
277 49 62 98 127 110 143 43 64 72 161 89 296 9 74 25 159 37 189 25 68 100
144 182 185 33 17 83 53 111 80 68 67 92 133 110 299 14 135 29 176 65 176 61
0 157 -204 229 -490 58 -229 116 -366 197 -463 68 -82 146 -136 324 -227 254
-131 330 -199 495 -449 161 -242 219 -293 619 -543 110 -69 252 -159 315 -200
272 -176 430 -249 599 -278 63 -10 75 -10 88 3 21 21 11 34 -77 104 -104 82
-167 154 -231 263 -100 171 -187 241 -364 290 -115 32 -191 74 -260 144 -74
73 -120 153 -180 312 -97 254 -132 467 -85 514 35 35 67 5 133 -125 19 -38 49
-110 66 -160 52 -146 97 -230 161 -298 70 -76 128 -106 269 -142 219 -55 295
-120 417 -355 122 -235 257 -343 534 -425 69 -20 192 -64 275 -97 114 -45 166
-61 218 -65 87 -7 88 3 5 70 -26 20 -89 78 -140 128 -140 137 -201 188 -338
284 -153 107 -202 148 -305 256 -218 230 -343 346 -440 410 -55 36 -145 95
-200 132 -145 95 -218 159 -369 324 -198 216 -257 249 -359 200 -29 -15 -99
-67 -157 -117 -115 -98 -151 -120 -202 -120 -49 0 -91 30 -208 149 -58 58
-167 165 -241 236 -122 117 -148 149 -260 315 -150 223 -214 306 -333 429
-120 123 -192 159 -266 130z"/>
<path d="M4598 6916 c-132 -47 -230 -132 -435 -377 -87 -104 -162 -181 -260
-265 -105 -91 -144 -131 -162 -168 -22 -44 -23 -51 -10 -74 8 -14 31 -31 52
-38 64 -22 281 -37 440 -30 274 13 381 39 614 151 229 110 264 120 413 120
147 -1 188 -13 434 -127 177 -82 293 -122 413 -142 111 -18 284 -28 301 -17
26 16 -1 37 -91 70 -50 18 -132 53 -182 76 -91 44 -129 68 -332 208 -62 43
-170 107 -240 144 -154 79 -220 125 -333 229 -143 133 -212 186 -290 223 -67
32 -85 36 -170 39 -81 2 -105 -1 -162 -22z"/>
<path d="M7172 6788 c-12 -6 -25 -23 -29 -36 -11 -44 31 -103 147 -206 60 -53
137 -131 171 -174 200 -248 345 -334 641 -378 141 -21 384 -24 416 -6 55 32
19 68 -183 182 -195 110 -246 145 -421 285 -87 71 -190 148 -227 173 -193 125
-432 199 -515 160z"/>
<path d="M1415 5320 c-278 -61 -449 -318 -432 -650 17 -347 239 -576 557 -573
189 1 338 87 425 244 29 53 30 58 33 216 3 136 1 167 -13 197 -20 42 -61 70
-127 86 -40 10 -57 9 -130 -10 -168 -45 -175 -46 -228 -27 -80 29 -111 22
-129 -27 -28 -72 44 -172 145 -202 110 -32 216 -1 276 80 42 56 68 72 96 57
26 -14 37 -65 27 -128 -15 -105 -76 -170 -183 -199 -55 -15 -74 -16 -130 -6
-155 26 -293 136 -375 300 -55 109 -82 220 -74 306 13 155 92 187 272 112 250
-105 346 -122 430 -79 72 38 131 116 150 198 21 88 -8 119 -77 84 -65 -33
-137 -35 -253 -4 -114 29 -202 38 -260 25z"/>
<path d="M2586 5314 c-147 -36 -269 -138 -340 -288 -54 -112 -76 -206 -76
-329 0 -174 54 -317 164 -435 103 -110 235 -166 386 -165 151 2 259 51 367
167 159 170 210 430 133 679 -87 281 -356 438 -634 371z m97 -77 c118 -50 214
-280 252 -607 20 -164 7 -295 -36 -382 -48 -94 -151 -92 -217 5 -91 133 -184
498 -185 727 -1 97 3 124 22 173 34 87 89 115 164 84z"/>
<path d="M3888 5312 c-28 -3 -38 -25 -18 -37 6 -4 18 -23 27 -43 15 -33 17
-89 20 -487 3 -467 -2 -529 -38 -578 -38 -52 -26 -57 146 -57 168 0 209 9 239
51 49 71 29 143 -86 307 -149 211 -193 330 -186 494 3 63 7 82 25 99 28 29 65
19 92 -24 11 -19 86 -197 166 -397 80 -199 157 -384 171 -411 29 -52 80 -94
135 -109 19 -6 114 -10 212 -10 140 0 179 3 183 14 3 7 -6 35 -20 61 l-26 48
0 477 0 476 26 52 c14 29 24 58 21 66 -4 10 -43 12 -176 10 -192 -2 -211 -8
-237 -71 -26 -61 -12 -97 117 -299 120 -186 168 -316 169 -450 0 -128 -66
-171 -125 -81 -13 20 -188 482 -269 709 -15 43 -41 96 -57 117 -49 68 -65 72
-287 74 -108 1 -209 1 -224 -1z"/>
<path d="M5365 5303 c-3 -9 1 -23 10 -33 32 -35 14 -130 -101 -522 -98 -337
-165 -512 -220 -578 -50 -59 -40 -62 210 -58 210 3 226 4 253 24 78 59 87 145
29 293 -20 51 -36 99 -36 107 0 29 149 30 176 1 16 -16 44 -189 44 -268 0 -47
-6 -73 -21 -98 -37 -61 -37 -61 246 -61 204 0 257 3 261 13 3 8 -11 37 -30 65
-54 81 -131 333 -226 742 -53 228 -60 305 -34 346 9 13 14 27 11 30 -3 3 -132
7 -286 9 -246 3 -280 1 -286 -12z m166 -254 c19 -20 40 -66 63 -137 46 -144
78 -272 72 -288 -4 -10 -29 -14 -95 -14 -107 0 -108 1 -140 120 -41 147 -36
274 12 328 28 30 54 28 88 -9z"/>
<path d="M6293 5312 l-63 -3 0 -225 c0 -199 2 -225 16 -231 9 -3 24 -2 33 4
16 9 75 121 156 293 28 59 48 89 68 100 27 14 29 14 48 -9 18 -22 19 -43 19
-507 0 -511 -1 -526 -47 -576 -8 -9 -13 -24 -10 -33 6 -13 39 -15 236 -15 151
0 232 4 236 11 4 5 -6 29 -22 51 l-28 41 -3 499 c-2 340 1 504 8 518 13 25 61
27 82 3 8 -10 38 -70 67 -133 62 -140 112 -230 133 -243 8 -6 23 -7 32 -4 14
6 16 32 16 232 l0 225 -32 2 c-56 3 -879 3 -945 0z"/>
<path d="M7353 5304 c-2 -6 7 -27 20 -47 33 -48 35 -83 33 -428 -2 -330 6
-411 49 -486 97 -168 231 -245 430 -246 122 -2 214 24 302 82 71 48 114 99
156 189 l32 67 5 390 5 390 24 42 c14 24 21 46 17 50 -11 12 -418 10 -422 -2
-3 -6 5 -28 16 -50 19 -37 20 -58 20 -362 0 -298 -2 -326 -20 -376 -11 -29
-35 -67 -52 -85 -122 -117 -363 -102 -454 29 -26 38 -29 50 -29 123 0 71 4 89
32 146 18 37 68 106 115 159 168 190 198 239 198 330 0 61 -32 90 -102 93
-160 7 -371 2 -375 -8z"/>
<path d="M8535 5312 c-63 -4 -75 -15 -48 -44 12 -13 26 -41 32 -63 13 -49 15
-912 1 -969 -5 -22 -18 -52 -30 -68 -40 -55 -29 -59 162 -58 239 2 278 21 278
137 0 87 -31 123 -224 258 -66 46 -99 93 -94 132 5 41 30 39 95 -5 32 -22 93
-61 136 -87 147 -89 247 -206 247 -290 0 -17 -9 -48 -20 -70 -24 -47 -25 -61
-4 -69 9 -3 98 -6 198 -6 204 0 220 5 232 65 20 108 -61 212 -231 298 -27 13
-124 50 -215 81 -272 93 -405 169 -370 211 29 35 103 10 183 -64 71 -64 117
-87 201 -101 89 -16 169 -2 266 47 125 64 181 160 183 316 3 180 -81 286 -261
332 -43 11 -134 15 -362 17 -168 2 -327 2 -355 0z m785 -272 c141 -36 169
-114 60 -167 -65 -32 -153 -43 -345 -43 -265 1 -380 23 -409 79 -18 33 -1 79
36 103 65 42 111 48 368 44 135 -2 265 -9 290 -16z"/>
<path d="M9883 5312 c-24 -4 -32 -35 -12 -48 22 -13 1 -139 -60 -360 -115
-419 -201 -656 -265 -732 -53 -61 -43 -64 203 -60 205 3 221 4 248 24 79 59
88 151 29 304 -34 89 -35 96 -18 108 22 17 139 10 157 -9 17 -18 45 -188 45
-270 0 -47 -6 -73 -21 -98 -37 -62 -37 -62 247 -59 173 2 259 7 261 14 2 6
-10 27 -26 48 -41 51 -107 258 -180 566 -94 396 -108 494 -76 530 38 42 24 45
-251 45 -142 0 -269 -1 -281 -3z m141 -262 c46 -55 149 -416 123 -432 -21 -14
-173 -9 -186 5 -17 21 -50 137 -61 218 -10 70 -2 159 16 192 31 55 70 61 108
17z"/>
<path d="M10798 5313 c-21 -2 -38 -8 -38 -13 0 -5 10 -28 22 -51 21 -41 21
-47 20 -529 -1 -492 -3 -523 -39 -562 -8 -10 -13 -24 -10 -33 6 -13 58 -15
424 -15 464 0 456 -1 469 65 14 78 -15 121 -125 181 -108 60 -135 95 -115 149
9 22 68 50 136 64 43 9 64 20 83 42 44 54 27 97 -54 132 -198 88 -336 44 -335
-108 0 -69 31 -132 103 -209 55 -60 61 -70 61 -109 0 -111 -141 -171 -265
-113 -64 30 -118 90 -161 180 -43 91 -57 170 -44 252 19 118 58 183 220 369
62 72 126 150 141 174 32 49 38 101 14 121 -14 12 -420 22 -507 13z"/>
</g>
</svg>
